<svg width="100" height="75" viewBox="0 0 100 75" fill="none" xmlns="http://www.w3.org/2000/svg">
<g style="mix-blend-mode:luminosity">
<path d="M32.8435 42.1742C29.1238 43.2298 26.6835 45.0807 25.0759 46.9301C26.6156 45.5827 28.6781 44.3461 31.4602 43.5574C34.3058 42.7509 36.7334 42.7567 38.7393 43.1438V41.5752C37.0281 41.4188 35.0664 41.5435 32.8435 42.1742ZM24.9059 28.9883L11.0917 32.6277C11.0917 32.6277 11.3435 32.9833 11.8097 33.4579L23.5224 30.3715C23.5224 30.3715 23.3564 32.5102 21.915 34.4234C24.6415 32.3607 24.9059 28.9883 24.9059 28.9883ZM36.4693 61.454C17.0291 66.69 6.74386 44.1607 3.62993 32.4672C2.19126 27.0695 1.56322 22.9816 1.39583 20.3435C1.37784 20.0696 1.38616 19.8387 1.40553 19.6271C0.397069 19.688 -0.0857418 20.2122 0.0124888 21.7271C0.179882 24.3637 0.807916 28.4514 2.24659 33.8507C5.35914 45.5425 15.6457 68.0718 35.086 62.8358C39.3175 61.6959 42.4965 59.6196 44.8828 56.9691C42.6833 58.9557 39.9303 60.5202 36.4693 61.454ZM40.1226 15.2002V16.5837H47.7478C47.5913 16.0939 47.4337 15.6525 47.2773 15.2002H40.1226Z" fill="#2D4552"/>
<path d="M49.4521 26.5941C52.8813 27.5681 54.695 29.9723 55.6536 32.1L59.4772 33.186C59.4772 33.186 58.9556 25.7394 52.22 23.8262C45.9189 22.0359 42.0413 27.3273 41.5697 28.012C43.4026 26.7061 46.0794 25.637 49.4521 26.5941ZM79.8885 32.1344C73.5816 30.336 69.7055 35.6384 69.2408 36.3136C71.0752 35.0091 73.7505 33.9396 77.1217 34.9012C80.5455 35.8765 82.3577 38.2779 83.3192 40.407L87.1483 41.497C87.1483 41.497 86.6183 34.049 79.8885 32.1344ZM76.0898 51.7684L44.2825 42.8762C44.2825 42.8762 44.6268 44.622 45.948 46.8825L72.7283 54.3692C74.9331 53.0936 76.0898 51.7684 76.0898 51.7684ZM54.0377 70.9084C28.8525 64.1561 31.8973 32.0668 35.9726 16.8609C37.6505 10.5944 39.3756 5.93666 40.8062 2.81444C39.9526 2.63874 39.2457 3.08835 38.5471 4.50904C37.0282 7.58972 35.0858 12.6057 33.2061 19.6277C29.1319 34.8333 26.0872 66.9215 51.2712 73.6738C63.1417 76.854 72.3892 72.0206 79.2826 64.4301C72.7393 70.3565 64.3852 73.6793 54.0377 70.9084Z" fill="#2D4552"/>
<path d="M40.1225 53.9341V47.4586L22.1308 52.5604C22.1308 52.5604 23.4602 44.8359 32.8434 42.1742C35.6889 41.3676 38.1169 41.3731 40.1225 41.7605V15.2002H49.1309C48.1501 12.1692 47.2012 9.83573 46.4042 8.21433C45.0859 5.53067 43.7344 7.30968 40.6663 9.87585C38.5054 11.6811 33.044 15.5324 24.8256 17.747C16.6071 19.963 9.96282 19.3753 7.1906 18.8953C3.26048 18.2172 1.20483 17.3541 1.39713 20.3435C1.5645 22.9801 2.19256 27.0681 3.63124 32.4671C6.74376 44.1593 17.0303 66.6885 36.4706 61.4525C41.5487 60.0843 45.133 57.3798 47.6175 53.9327H40.1225V53.9341ZM11.0903 32.6276L24.9058 28.9882C24.9058 28.9882 24.5031 34.303 19.3239 35.6684C14.1433 37.0323 11.0903 32.6276 11.0903 32.6276Z" fill="#E2574C"/>
<path d="M92.1172 15.507C88.526 16.1366 79.9104 16.9208 69.2629 14.0669C58.6125 11.2146 51.5462 6.22616 48.7465 3.88139C44.7777 0.557192 43.0319 -1.753 41.3138 1.74136C39.7949 4.82345 37.8525 9.83947 35.9725 16.8614C31.8986 32.0671 28.8539 64.1552 54.0376 70.9075C79.2161 77.6541 92.6206 48.3408 96.6947 33.1337C98.5747 26.1132 99.3991 20.797 99.626 17.3691C99.8847 13.4861 97.2175 14.6133 92.1172 15.507ZM41.5185 28.0873C41.5185 28.0873 45.4872 21.9146 52.2185 23.8279C58.954 25.7411 59.4756 33.1876 59.4756 33.1876L41.5185 28.0873ZM57.9498 55.7861C46.1099 52.3179 44.2838 42.8765 44.2838 42.8765L76.0897 51.7689C76.0897 51.7674 69.6696 59.2111 57.9498 55.7861ZM69.1951 36.3831C69.1951 36.3831 73.1583 30.2147 79.8884 32.1334C86.6182 34.0496 87.1482 41.4961 87.1482 41.4961L69.1951 36.3831Z" fill="#2EAD33"/>
<path d="M33.8356 49.2415L22.1312 52.5588C22.1312 52.5588 23.4026 45.3157 32.0248 42.4453L25.3972 17.5728L24.8245 17.7468C16.6061 19.9631 9.96184 19.3751 7.18962 18.8951C3.25953 18.2173 1.20388 17.354 1.39615 20.3436C1.56355 22.9802 2.19158 27.0679 3.63026 32.4673C6.74281 44.1591 17.0294 66.6883 36.4696 61.4523L37.0423 61.2725L33.8356 49.2415ZM11.0907 32.6277L24.9062 28.9881C24.9062 28.9881 24.5035 34.3028 19.3243 35.6682C14.1437 37.0321 11.0907 32.6277 11.0907 32.6277Z" fill="#D65348"/>
<path d="M58.4838 55.916L57.9483 55.7858C46.1084 52.3179 44.2824 42.8765 44.2824 42.8765L60.6834 47.4609L69.3665 14.0946L69.2614 14.0669C58.6111 11.2146 51.545 6.22616 48.745 3.88138C44.7763 0.557192 43.0305 -1.753 41.3124 1.74136C39.7949 4.82345 37.8525 9.83947 35.9725 16.8614C31.8986 32.0671 28.8539 64.1552 54.0376 70.9072L54.5537 71.0236L58.4838 55.916ZM41.5185 28.0873C41.5185 28.0873 45.4872 21.9146 52.2185 23.8279C58.954 25.7411 59.4756 33.1876 59.4756 33.1876L41.5185 28.0873Z" fill="#1D8D22"/>
<path d="M34.4315 49.071L31.2926 49.9618C32.0342 54.1421 33.3413 58.1539 35.3928 61.6981C35.7498 61.6193 36.104 61.5514 36.4677 61.4518C37.4209 61.1946 38.3047 60.8762 39.1557 60.529C36.8635 57.1274 35.3471 53.2098 34.4315 49.071ZM33.2059 19.6278C31.5928 25.648 30.1498 34.3133 30.547 43.0048C31.258 42.6962 32.0091 42.4087 32.8433 42.172L33.4244 42.0421C32.716 32.7583 34.2474 23.2978 35.9724 16.861C36.4097 15.2327 36.8482 13.7181 37.2852 12.3057C36.5812 12.7537 35.8231 13.2129 34.9598 13.686C34.3775 15.4832 33.7895 17.4475 33.2059 19.6278Z" fill="#C04B41"/>
</g>
</svg>
