<svg width="75" height="75" viewBox="0 0 75 75" fill="none" xmlns="http://www.w3.org/2000/svg">
<g style="mix-blend-mode:luminosity" clip-path="url(#clip0_296_341)">
<path d="M59.0869 7.40765C50.0685 -0.346265 30.1138 -4.18748 15.1601 6.94486C1.13125 16.3115 0.4375 33.4316 0.4375 33.4316C2.82695 42.7982 12.308 51.7806 30.5761 47.4045C28.4181 34.8135 32.6479 2.95513 59.0869 7.40795V7.40765Z" fill="#00ACD2"/>
<path d="M49.6933 37.8596C39.8246 46.0167 9.78569 58.4639 0.437934 33.4321C-1.79507 45.0882 4.40151 64.4884 21.5578 71.8209C36.7165 79.2384 52.514 70.6479 52.514 70.6479C59.4632 63.9036 62.6326 51.429 49.6933 37.8596Z" fill="#C8E9EB"/>
<path d="M31.8691 26.4188C43.8961 30.8527 69.6056 50.069 52.5144 70.6482C63.7658 66.746 76.9597 51.8157 74.7571 33.3513C73.6274 16.5672 59.088 7.40854 59.088 7.40854C49.7493 4.78646 37.1982 8.47331 31.8691 26.4188Z" fill="#662D91"/>
</g>
<defs>
<clipPath id="clip0_296_341">
<rect width="75" height="75" fill="white"/>
</clipPath>
</defs>
</svg>
