<svg width="75" height="75" viewBox="0 0 75 75" fill="none" xmlns="http://www.w3.org/2000/svg">
<path fill-rule="evenodd" clip-rule="evenodd" d="M64.1418 5.42113C53.3155 17.2909 45.1764 26.1321 45.0164 26.196C44.9236 26.233 42.0456 23.6364 38.6207 20.426C35.1958 17.2153 32.3263 14.6158 32.244 14.6494C32.1617 14.6827 30.8999 15.9947 29.4403 17.5647L26.7861 20.4194L28.895 22.4827C33.9124 27.3922 45.0909 38.0039 45.2452 38.0039C45.3378 38.0039 50.063 32.917 55.7456 26.6996C61.4279 20.4822 68.0848 13.1983 70.5386 10.5133C72.9923 7.82816 75 5.55884 75 5.47046C75 5.28594 69.3596 -0.0220828 69.187 6.9141e-05C69.1243 0.00806212 66.8541 2.44752 64.1418 5.42113ZM12.6528 4.46974C11.1585 4.70108 9.20058 5.35514 7.75167 6.1067C5.46887 7.29058 2.76116 10.0495 1.6617 12.3122C-0.0979239 15.9326 0.00101089 14.3153 0.00101089 39.4883C0.00101089 57.3383 0.063472 62.2658 0.303514 63.3531C0.469925 64.1067 1.06262 65.6752 1.62067 66.8385C3.04428 69.8059 5.18574 71.9512 8.14786 73.3774C9.30909 73.9365 10.8747 74.5302 11.627 74.697C12.7123 74.9374 17.631 75 35.4489 75C56.4518 75 57.9987 74.9733 59.3847 74.5851C64.4434 73.1687 68.2369 69.5552 69.9514 64.5194C70.4173 63.1505 70.4276 62.7132 70.5044 40.9728C70.5475 28.7892 70.5156 18.1654 70.4335 17.364L70.2842 15.9075L68.8323 17.3489L67.3806 18.7904L67.3129 40.5009L67.2455 62.2112L66.7378 63.7121C65.4035 67.6574 62.1494 70.6333 58.2907 71.437C57.4596 71.6101 50.2369 71.6886 35.1436 71.6886C11.0398 71.6886 11.9231 71.7361 9.22247 70.2942C7.55767 69.4051 5.58581 67.4297 4.69836 65.7619C3.25902 63.0564 3.30644 63.9414 3.30644 39.7941C3.30644 24.6737 3.38486 17.438 3.55765 16.6054C4.35961 12.7406 7.32606 9.48431 11.2686 8.14103L12.7668 7.63062L35.2606 7.57832L57.7541 7.52603L58.9242 6.28666C59.5678 5.60497 60.0116 4.99614 59.9104 4.93356C59.0482 4.40055 55.6737 4.32107 35.122 4.3503C23.0774 4.36743 12.9663 4.4211 12.6528 4.46974ZM16.3396 33.1008C10.574 33.8907 7.138 37.5529 7.45919 42.5656C7.6541 45.6107 9.20172 47.8712 12.0533 49.2759C12.822 49.6543 15.2459 50.4339 17.44 51.008C23.1349 52.4982 24.4929 53.2863 24.9688 55.3777C25.4097 57.3141 24.3784 59.1659 22.286 60.1952C21.0732 60.7919 20.7739 60.8406 18.3518 60.8353C16.1201 60.8303 15.557 60.7517 14.5661 60.3073C13.1388 59.6672 11.8575 58.3926 11.4469 57.2047L11.1392 56.3138L8.90902 56.3362C7.68259 56.3485 6.64264 56.3951 6.59796 56.4396C6.55351 56.4844 6.64902 57.0818 6.81042 57.7676C7.98191 62.7417 12.6341 65.5484 19.1497 65.2118C23.0521 65.0101 25.5009 64.0919 27.5142 62.0749C29.1298 60.4564 29.7925 58.8642 29.9211 56.2935C30.0084 54.5428 29.9461 54.01 29.5219 52.8864C28.9527 51.3785 28.07 50.2716 26.663 49.3019C25.2891 48.3548 23.7739 47.8022 19.4729 46.6795C15.2511 45.5774 13.939 45.043 12.9715 44.0316C12.3758 43.4086 12.3109 43.1891 12.3109 41.7963C12.3109 40.445 12.3932 40.1438 12.9704 39.3858C14.784 37.0039 19.7716 36.5042 22.6188 38.4193C23.3916 38.9393 23.8885 39.5192 24.3668 40.4589L25.0349 41.7721H27.2984H29.562L29.4095 40.8015C28.5868 35.5649 22.8832 32.2045 16.3396 33.1008ZM43.3317 41.3397C39.3189 41.926 36.2928 44.8571 35.0855 49.3266C34.5653 51.2524 34.5548 55.2848 35.0652 57.2385C36.1852 61.5266 38.9889 64.3093 42.9467 65.0611C46.2667 65.6918 50.0739 64.911 52.4205 63.1181C53.3011 62.4451 54.6206 60.5551 55.0067 59.4137L55.2577 58.6715H53.0969H50.9363L50.2022 59.5089C48.3482 61.6245 44.4759 61.9461 41.9102 60.1972C40.6078 59.3098 39.652 57.6838 39.3705 55.8767L39.1662 54.5665L47.3947 54.5065L55.6234 54.4466L55.5554 52.3913C55.3452 46.0426 52.2774 42.0927 46.9609 41.326C45.1707 41.068 45.193 41.068 43.3317 41.3397ZM47.6498 45.3965C48.154 45.626 48.8908 46.1385 49.2867 46.5352C50.0757 47.3256 50.9502 49.3903 50.9502 50.4627V51.143L45.1942 51.082L39.4382 51.0211L39.5152 50.2371C39.7325 48.0312 41.2338 45.9764 43.1209 45.3024C44.3831 44.8516 46.5514 44.8966 47.6498 45.3965Z" fill="#818181"/>
</svg>
