<svg width="75" height="75" viewBox="0 0 75 75" fill="none" xmlns="http://www.w3.org/2000/svg">
<path fill-rule="evenodd" clip-rule="evenodd" d="M36.9362 0.015503C36.6777 0.0343175 35.8318 0.0962446 35.0564 0.153066C29.904 0.530962 24.3898 2.03432 19.944 4.27324C11.0646 8.74474 4.95269 16.391 1.70108 27.0953C0.0137513 32.6502 -0.433551 38.4769 0.427405 43.688C1.24259 48.6223 3.07024 53.1834 5.99618 57.5861C7.36309 59.6428 8.50677 61.0919 10.4451 63.223C16.7541 70.1593 24.9515 74.1405 34.1635 74.7422C35.0164 74.7979 36.391 74.8903 37.2182 74.9476C40.8923 75.2022 45.2729 74.5247 49.8129 72.9999C53.5671 71.739 56.7656 70.0127 60.3399 67.318C62.4111 65.7566 64.6073 63.8112 65.0118 63.1793C65.173 62.9277 65.4567 62.6254 65.6422 62.5076C66.1278 62.1993 69.1219 57.8811 70.3657 55.6952C72.2017 52.4688 73.6681 48.3694 74.4916 44.1607C75.0705 41.202 75.1478 38.1722 74.7603 33.6189C74.2626 27.7704 72.1248 21.8396 68.6258 16.6009C66.9894 14.1508 65.5074 12.2994 64.4724 11.4122C64.2673 11.2365 63.7359 10.7447 63.2913 10.3196C57.1349 4.43075 49.4891 0.849578 41.5887 0.154484C40.3549 0.0458521 37.6357 -0.0352676 36.9362 0.015503ZM36.7226 11.9404C36.9005 12.1023 36.9072 12.2153 36.8755 14.5042C36.8377 17.2247 36.8221 17.1681 37.6099 17.1681C38.2634 17.1681 38.3081 17.0294 38.299 15.028C38.2855 12.0837 38.2798 12.1766 38.487 11.9682C38.6375 11.8168 38.8003 11.7791 39.3037 11.7791C40.32 11.7791 43.2193 12.2665 45.0194 12.7401C45.8055 12.947 47.8236 13.6033 48.3091 13.8101C51.0406 14.9734 52.8299 16.0123 54.7005 17.5212C55.7251 18.3478 57.0151 19.5439 56.9827 19.6375C56.9682 19.6797 56.142 20.5386 55.1469 21.5462C54.1518 22.5538 53.3376 23.4303 53.3376 23.4939C53.3376 23.8428 53.9146 24.4403 54.2562 24.445C54.4101 24.4472 54.8586 24.0451 55.8609 23.0063C56.626 22.2133 57.4004 21.3985 57.5818 21.1956C57.8629 20.8814 57.9496 20.8366 58.1695 20.8921C58.4616 20.9658 59.2253 21.7081 60.0579 22.7277C60.3681 23.1076 60.8222 23.6578 61.0669 23.9504C61.3117 24.243 61.497 24.4974 61.4788 24.5158C61.4606 24.5341 61.6745 24.9625 61.9541 25.4677C63.9667 29.103 65.2172 32.6426 65.7456 36.1993C65.9718 37.7219 65.9799 38.3586 65.7787 38.7851C65.5005 39.3748 65.2813 39.4258 63.1431 39.3972C61.1074 39.3701 60.9166 39.4048 60.7555 39.831C60.6348 40.1507 60.8048 40.6804 61.0538 40.7599C61.1557 40.7924 61.8614 40.8099 62.6223 40.7987C63.3831 40.7874 64.289 40.7747 64.6355 40.7705C65.3863 40.7613 65.6167 40.9226 65.8631 41.63C66.1743 42.5233 66.2379 43.555 66.0917 45.3365C65.9681 46.8429 65.9383 47 65.746 47.1565C65.544 47.3211 64.4587 47.3283 38.5471 47.3374C23.7035 47.3426 11.1393 47.3745 10.6266 47.4083L9.69462 47.4698L9.48578 46.9946C8.91384 45.6936 8.93452 42.8728 9.52563 41.5607C9.91202 40.703 9.74792 40.7527 12.0678 40.7901L14.1197 40.8231L14.2725 40.6035C14.4613 40.3326 14.4701 39.8616 14.2912 39.617C14.1637 39.4426 14.0448 39.435 11.9176 39.4644L9.67817 39.4953L9.44348 39.2429C9.22692 39.0101 9.21019 38.9269 9.22542 38.1623C9.26067 36.3944 9.86211 33.2628 10.5698 31.1629C11.626 28.0282 13.3081 24.9629 15.4336 22.299C16.2944 21.2202 16.5096 21.0445 16.9699 21.0445C17.3065 21.0445 17.417 21.1347 18.8663 22.5906C19.7128 23.441 20.518 24.211 20.6556 24.3016C20.8961 24.4602 20.918 24.459 21.2211 24.2705C21.6427 24.0084 21.8093 23.6445 21.6319 23.3728C21.5597 23.2622 20.8962 22.5548 20.1574 21.8008C19.4185 21.0468 18.7362 20.3023 18.6409 20.1463C18.4087 19.766 18.4221 19.3545 18.6785 18.9867C19.1101 18.3677 21.5528 16.5664 23.4194 15.4908C26.4569 13.7402 29.6347 12.6516 33.5525 12.0195C35.7719 11.6614 36.3989 11.6457 36.7226 11.9404ZM35.2444 22.0421C27.3042 23.1174 21.1198 29.0397 19.4531 37.1644C19.3251 37.7884 19.22 38.5477 19.2197 38.852C19.219 39.3554 19.2476 39.4339 19.5385 39.7265C19.7495 39.9388 19.949 40.0489 20.1259 40.0508C20.2733 40.0523 28.2334 40.0544 37.815 40.0555C56.7773 40.0574 55.5061 40.0927 55.7911 39.5569C56.1375 38.9058 55.5902 36.0079 54.6875 33.7135C52.4245 27.9619 47.5802 23.7691 41.5887 22.3765C39.6059 21.9156 37.1388 21.7856 35.2444 22.0421Z" fill="#818181"/>
</svg>
