<svg width="75" height="83" viewBox="0 0 75 83" fill="none" xmlns="http://www.w3.org/2000/svg">
<g style="mix-blend-mode:luminosity" clip-path="url(#clip0_296_323)">
<path d="M37.8955 0.00927734C16.9506 0.00927734 0 16.3293 0 36.4951C0 54.25 13.2188 69.0024 30.6636 72.2845V82.7289C53.3432 79.4369 73.4247 62.1034 74.9232 39.35C75.825 25.6541 68.7328 11.6725 56.7709 4.88323C56.0859 4.49476 55.3901 4.10883 54.6735 3.76931C53.9435 3.42332 53.1937 3.08633 52.4317 2.79435C52.1897 2.69702 51.9527 2.6087 51.7084 2.51587C51.0431 2.27959 50.3716 2.0132 49.6837 1.81967C45.9753 0.643029 42.0114 0.00927734 37.8955 0.00927734Z" fill="#00A818"/>
<path d="M45.7456 13.491C44.4469 13.3627 43.079 13.7979 42.1225 14.8862C41.4267 15.7796 40.9919 16.6446 40.5281 17.5377C39.1365 20.6634 39.6006 24.0125 41.6877 26.4687C44.9341 25.7987 47.6877 23.8032 49.0793 20.6775C49.5431 19.7844 49.8038 18.6401 49.8038 17.747C49.9488 15.3748 47.9106 13.7048 45.7456 13.491ZM28.8609 13.7003C26.7436 13.8944 24.7304 15.5146 24.7304 17.747C24.7304 18.6401 24.9911 19.7844 25.4552 20.6775C26.8465 23.8032 29.8175 25.7987 33.0642 26.4684C34.9192 24.0127 35.3974 20.6634 34.006 17.5377C33.5423 16.6446 33.1075 15.7655 32.4117 15.0958C31.4552 14.0072 30.1315 13.5836 28.8609 13.7003ZM17.4841 24.4454C13.8272 24.626 12.1939 29.0501 15.2376 31.3528C16.1651 32.0223 17.0637 32.5109 17.9915 32.9576C21.2376 34.2971 24.9914 33.8366 27.7743 32.0504C27.0785 29.148 24.7163 26.4828 21.4696 25.143C20.3101 24.6966 19.3682 24.4454 18.2089 24.4454C17.9478 24.4172 17.7278 24.4333 17.4841 24.4454ZM53.2101 37.9812C51.0861 37.9418 48.9346 38.5392 47.1955 39.6554C47.891 42.5581 50.2535 45.2233 53.5002 46.5628C54.6595 47.0092 55.6014 47.2604 56.7609 47.2604C60.9351 47.4838 62.9786 42.5161 59.7322 40.2835C58.8044 39.6135 57.9058 39.1949 56.9783 38.7485C55.761 38.2461 54.4846 38.0045 53.2101 37.9809V37.9812ZM21.542 38.1902C20.2676 38.2138 18.9914 38.4554 17.7738 38.9578C16.6143 39.4042 15.7157 39.8928 15.0199 40.5626C12.0053 43.0183 14.0347 47.6933 18.2086 47.4697C19.3682 47.4697 20.5421 47.2188 21.4696 46.7721C24.7163 45.4326 27.0205 42.7673 27.4843 39.8647C25.7278 38.7376 23.6543 38.1533 21.542 38.1902ZM33.2818 45.0278C30.0351 45.6976 27.2815 47.693 25.8902 50.8188C25.4265 51.7119 25.1654 52.7864 25.1654 53.6795C24.9337 57.475 30.3105 59.5124 32.6297 56.6097C33.3252 55.7166 33.76 54.8516 34.2237 53.9585C35.6153 51.0562 35.1369 47.7071 33.2818 45.0278ZM41.9054 45.2371C40.05 47.693 39.5719 51.0421 40.9632 54.1681C41.4269 55.0609 41.8617 55.9403 42.5575 56.6097C45.1084 59.289 50.4706 57.3073 50.2392 53.9585C50.2392 53.0654 49.9781 51.9211 49.5143 51.028C48.1227 47.9023 45.152 45.9068 41.9054 45.2371Z" fill="white"/>
</g>
<defs>
<clipPath id="clip0_296_323">
<rect width="75" height="83" fill="white"/>
</clipPath>
</defs>
</svg>
